<?xml version="1.0" encoding="UTF-8"?>
<svg version="1.1" xmlns="http://www.w3.org/2000/svg" width="50" height="50">
<path d="M0 0 C1.1149585 -0.00430527 1.1149585 -0.00430527 2.25244141 -0.00869751 C3.8225989 -0.01073726 5.39278186 -0.0052135 6.96289062 0.00732422 C9.36646332 0.02338047 11.76835461 0.00747398 14.171875 -0.01171875 C15.69792038 -0.0097363 17.22396471 -0.00589259 18.75 0 C19.46881348 -0.00607269 20.18762695 -0.01214539 20.92822266 -0.0184021 C25.9166452 0.05192172 25.9166452 0.05192172 28.0670929 1.67765808 C30.38082606 4.72177673 29.73584458 8.5509379 29.66796875 12.22265625 C29.66372391 13.08405716 29.65947906 13.94545807 29.65510559 14.83296204 C29.63831248 17.58427181 29.60065956 20.33484912 29.5625 23.0859375 C29.54745396 24.9511613 29.53376541 26.81639657 29.52148438 28.68164062 C29.48840693 33.25418848 29.4366206 37.8261888 29.375 42.3984375 C27.065 42.3984375 24.755 42.3984375 22.375 42.3984375 C22.375 41.7384375 22.375 41.0784375 22.375 40.3984375 C24.025 40.3984375 25.675 40.3984375 27.375 40.3984375 C27.25671792 35.75348892 27.13246726 31.10875285 27.00268555 26.46411133 C26.95937695 24.88407735 26.91769894 23.30399781 26.87768555 21.72387695 C26.81988417 19.45249702 26.7562184 17.18134561 26.69140625 14.91015625 C26.67469376 14.20380539 26.65798126 13.49745453 26.64076233 12.7696991 C26.5490253 9.7319551 26.34292314 7.30220692 25.375 4.3984375 C23.395 4.3984375 21.415 4.3984375 19.375 4.3984375 C18.715 6.7084375 18.055 9.0184375 17.375 11.3984375 C10.775 11.3984375 4.175 11.3984375 -2.625 11.3984375 C-2.625 20.9684375 -2.625 30.5384375 -2.625 40.3984375 C1.665 40.3984375 5.955 40.3984375 10.375 40.3984375 C10.375 41.0584375 10.375 41.7184375 10.375 42.3984375 C5.425 42.3984375 0.475 42.3984375 -4.625 42.3984375 C-4.625 32.1684375 -4.625 21.9384375 -4.625 11.3984375 C-6.605 11.3984375 -8.585 11.3984375 -10.625 11.3984375 C-10.99076637 3.96118796 -10.99076637 3.96118796 -9.58325195 1.7956543 C-6.60111919 -0.33210356 -3.52996564 -0.02982192 0 0 Z M-7.625 4.3984375 C-7.955 6.0484375 -8.285 7.6984375 -8.625 9.3984375 C-0.705 9.3984375 7.215 9.3984375 15.375 9.3984375 C15.705 7.0884375 16.035 4.7784375 16.375 2.3984375 C13.12507554 2.34024326 9.87528565 2.30477634 6.625 2.2734375 C5.70460938 2.25667969 4.78421875 2.23992188 3.8359375 2.22265625 C2.94648438 2.21621094 2.05703125 2.20976563 1.140625 2.203125 C0.32368164 2.19265137 -0.49326172 2.18217773 -1.33496094 2.17138672 C-3.97161456 2.43280334 -5.48415968 2.82094504 -7.625 4.3984375 Z " fill="#7B9292" transform="translate(13.625,3.6015625)"/>
<path d="M0 0 C2.18529142 4.29773979 1.97797551 7.12113467 1.125 11.8125 C0.92132813 12.97394531 0.71765625 14.13539062 0.5078125 15.33203125 C0.25644531 16.65267578 0.25644531 16.65267578 0 18 C-0.9075 17.814375 -1.815 17.62875 -2.75 17.4375 C-5.68314324 17.04265379 -7.2644657 17.05308428 -10 18 C-10.39058179 15.75265248 -10.76192958 13.50195579 -11.125 11.25 C-11.33382813 9.99703125 -11.54265625 8.7440625 -11.7578125 7.453125 C-11.99511384 4.06966715 -12.04747557 2.65270419 -10 0 C-6.30581799 -1.231394 -3.7943739 -0.64432764 0 0 Z M-6 2 C-6.66 2.66 -7.32 3.32 -8 4 C-8 4.99 -8 5.98 -8 7 C-4.95086772 8.01111093 -4.95086772 8.01111093 -2 7 C-2.26676204 5.01508358 -2.26676204 5.01508358 -3 3 C-3.99 2.67 -4.98 2.34 -6 2 Z M-8 11 C-7.67 11.99 -7.34 12.98 -7 14 C-5.35 14 -3.7 14 -2 14 C-2 13.01 -2 12.02 -2 11 C-3.98 11 -5.96 11 -8 11 Z " fill="#799494" transform="translate(35,31)"/>
<path d="M0 0 C6.6 0 13.2 0 20 0 C20 0.66 20 1.32 20 2 C13.4 2 6.8 2 0 2 C0 1.34 0 0.68 0 0 Z " fill="#7C9393" transform="translate(16,24)"/>
<path d="M0 0 C6.6 0 13.2 0 20 0 C20 0.66 20 1.32 20 2 C13.4 2 6.8 2 0 2 C0 1.34 0 0.68 0 0 Z " fill="#7C9393" transform="translate(16,18)"/>
</svg>
