<?xml version="1.0" encoding="UTF-8"?>
<svg version="1.1" xmlns="http://www.w3.org/2000/svg" width="64" height="64">
<path d="M0 0 C0.99245476 0.00212242 0.99245476 0.00212242 2.00495911 0.00428772 C4.11402953 0.00987629 6.22299302 0.0224266 8.33203125 0.03515625 C9.76367034 0.04017273 11.1953111 0.04473538 12.62695312 0.04882812 C16.13284713 0.05984195 19.63867875 0.0770987 23.14453125 0.09765625 C21.73716488 3.33562358 20.07922119 5.33068832 17.484375 7.70703125 C16.77345703 8.37992188 16.06253906 9.0528125 15.33007812 9.74609375 C13.83705504 11.14183036 12.33445138 12.5273918 10.82226562 13.90234375 C6.03417915 18.45560966 6.03417915 18.45560966 4.1484375 24.61328125 C4.14714844 25.763125 4.14585938 26.91296875 4.14453125 28.09765625 C6.98824018 29.34888818 8.26830602 29.05938176 11.27734375 28.12890625 C16.31200662 25.87253172 19.72859081 21.86665699 23.45703125 17.91015625 C24.86535555 16.4332571 26.27789914 14.9603659 27.6953125 13.4921875 C28.31059814 12.84096924 28.92588379 12.18975098 29.55981445 11.51879883 C31.14453125 10.09765625 31.14453125 10.09765625 33.14453125 10.09765625 C33.19406812 14.29685862 33.23031536 18.49590494 33.25439453 22.6953125 C33.26443552 24.12307703 33.27807106 25.55082108 33.29541016 26.97851562 C33.31974277 29.03390566 33.33103327 31.08902317 33.33984375 33.14453125 C33.3555542 34.99836426 33.3555542 34.99836426 33.37158203 36.88964844 C33.15311751 39.97634068 32.95673261 41.62276825 31.14453125 44.09765625 C27.65179116 46.70905555 23.67636139 46.40382852 19.4921875 46.3984375 C18.38646645 46.40486519 18.38646645 46.40486519 17.25840759 46.41142273 C15.70263697 46.41715371 14.14683956 46.41767537 12.59106445 46.41333008 C10.21844492 46.41017144 7.84707476 46.43363805 5.47460938 46.45898438 C3.95963698 46.46125774 2.44466125 46.46196069 0.9296875 46.4609375 C-0.12834328 46.47475212 -0.12834328 46.47475212 -1.20774841 46.48884583 C-5.57844482 46.44805552 -8.41888723 45.85363054 -11.85546875 43.09765625 C-13.04472867 39.52987648 -13.03643457 36.25820136 -13.05859375 32.54296875 C-13.06429382 31.80440643 -13.0699939 31.06584412 -13.0758667 30.30490112 C-13.0853052 28.74315824 -13.09184612 27.18139555 -13.09570312 25.61962891 C-13.10540521 23.23825099 -13.13643653 20.85773781 -13.16796875 18.4765625 C-13.17449969 16.95703636 -13.17974981 15.43750406 -13.18359375 13.91796875 C-13.19594055 13.20947784 -13.20828735 12.50098694 -13.2210083 11.77102661 C-13.20137839 7.38440093 -12.62637629 4.54465224 -9.85546875 1.09765625 C-6.37764292 -0.06161903 -3.66743618 -0.01547441 0 0 Z " fill="#ACACAC" transform="translate(21.85546875,8.90234375)"/>
<path d="M0 0 C2.62187494 1.04874998 3.79371361 1.64931313 5.25 4.125 C5.4975 4.74375 5.745 5.3625 6 6 C3.33764667 8.83724264 0.64129946 11.63977203 -2.0625 14.4375 C-2.81466797 15.23994141 -3.56683594 16.04238281 -4.34179688 16.86914062 C-10.72265625 23.41573661 -10.72265625 23.41573661 -15.05859375 24.03515625 C-16.02925781 24.02355469 -16.99992187 24.01195313 -18 24 C-18.06278625 18.74688381 -16.8295268 16.39831062 -13.18359375 12.59765625 C-11.61661122 11.07034416 -10.03397614 9.55895595 -8.4375 8.0625 C-7.63119141 7.28326172 -6.82488281 6.50402344 -5.99414062 5.70117188 C-4.00898131 3.78649159 -2.01120861 1.88723653 0 0 Z " fill="#ABABAB" transform="translate(46,12)"/>
<path d="M0 0 C2.86724686 0.57344937 3.8614515 0.8614515 6 3 C5.625 5.125 5.625 5.125 5 7 C1 7 1 7 -0.75 5.5 C-1.1625 5.005 -1.575 4.51 -2 4 C-1.34 2.68 -0.68 1.36 0 0 Z " fill="#ABABAB" transform="translate(50,8)"/>
</svg>
