<?xml version="1.0" encoding="UTF-8"?>
<svg version="1.1" xmlns="http://www.w3.org/2000/svg" width="50" height="50">
<path d="M0 0 C1.11375 0.556875 1.11375 0.556875 2.25 1.125 C2.76044274 4.04181567 2.87337312 6.21366012 1.15283203 8.72900391 C-4.55726675 15.03460204 -10.48942245 21.12005937 -16.48413086 27.15429688 C-17.7093092 28.39109061 -18.92998241 29.6323625 -20.14624023 30.87792969 C-21.92241151 32.6967367 -23.71143872 34.50195556 -25.50390625 36.3046875 C-26.0415712 36.85986053 -26.57923615 37.41503357 -27.13319397 37.98703003 C-31.72371221 42.55159749 -35.31184199 44.125 -41.75 44.125 C-40.87825398 35.23319063 -36.90783162 30.97926999 -30.81640625 24.92578125 C-30.14206039 24.24952194 -29.46771454 23.57326263 -28.77293396 22.87651062 C-27.35067354 21.45289308 -25.92589974 20.03178262 -24.4987793 18.61303711 C-22.31650824 16.44148855 -20.14512538 14.25946285 -17.97460938 12.07617188 C-16.58918262 10.69206647 -15.20313572 9.30858146 -13.81640625 7.92578125 C-12.84435997 6.94766228 -12.84435997 6.94766228 -11.85267639 5.94978333 C-11.24201828 5.34542953 -10.63136017 4.74107574 -10.00219727 4.1184082 C-9.46941666 3.58721878 -8.93663605 3.05602936 -8.38771057 2.50874329 C-5.42627624 0.00655215 -3.80691972 -1.21129264 0 0 Z M-6.75 5.125 C-7.74 6.61 -7.74 6.61 -8.75 8.125 C-7.43 9.115 -6.11 10.105 -4.75 11.125 C-4.09 10.135 -3.43 9.145 -2.75 8.125 C-4.07 7.135 -5.39 6.145 -6.75 5.125 Z M-36.75 36.125 C-37.08 37.445 -37.41 38.765 -37.75 40.125 C-36.43 39.795 -35.11 39.465 -33.75 39.125 C-33.75 38.135 -33.75 37.145 -33.75 36.125 C-34.74 36.125 -35.73 36.125 -36.75 36.125 Z " fill="#ACACAC" transform="translate(44.75,2.875)"/>
</svg>
