<?xml version="1.0" encoding="UTF-8"?>
<svg version="1.1" xmlns="http://www.w3.org/2000/svg" width="30" height="30">
<path d="M0 0 C3.12578143 1.6720747 5.39281175 3.7856235 7 7 C7.51512617 11.09157355 7.94367269 15.23589546 5.953125 18.95703125 C3.55501226 21.85592636 1.60351712 23.79811835 -2.171875 24.2734375 C-9.98876369 24.58137554 -9.98876369 24.58137554 -13.5625 21.625 C-17.3057723 17.59378368 -17.39037018 14.90519941 -17.359375 9.55078125 C-16.78039966 5.44131496 -15.00085071 3.78650423 -12 1 C-8.27533151 -0.86233425 -4.05504687 -0.57130829 0 0 Z M-6 7 C-6 8.32 -6 9.64 -6 11 C-7.32 11 -8.64 11 -10 11 C-10 11.66 -10 12.32 -10 13 C-8.68 13 -7.36 13 -6 13 C-6 14.32 -6 15.64 -6 17 C-5.34 17 -4.68 17 -4 17 C-4 15.68 -4 14.36 -4 13 C-2.68 13 -1.36 13 0 13 C0 12.34 0 11.68 0 11 C-1.32 11 -2.64 11 -4 11 C-4 9.68 -4 8.36 -4 7 C-4.66 7 -5.32 7 -6 7 Z " fill="#ABABAB" transform="translate(20,3)"/>
</svg>
