<?xml version="1.0" encoding="UTF-8"?>
<svg version="1.1" xmlns="http://www.w3.org/2000/svg" width="50" height="50">
<path d="M0 0 C5.28 0 10.56 0 16 0 C16 2.97 16 5.94 16 9 C19.96 9 23.92 9 28 9 C28 6.03 28 3.06 28 0 C33.28 0 38.56 0 44 0 C44 14.52 44 29.04 44 44 C29.48 44 14.96 44 0 44 C0 29.48 0 14.96 0 0 Z M2 3 C1.89896745 5.79993597 1.86029912 8.57468644 1.8671875 11.375 C1.86623077 12.21466309 1.86527405 13.05432617 1.86428833 13.91943359 C1.86360652 15.69824295 1.86546083 17.47705477 1.86962891 19.25585938 C1.87497717 21.98833776 1.86968395 24.72065176 1.86328125 27.453125 C1.86394203 29.1770837 1.86522319 30.90104229 1.8671875 32.625 C1.86516327 33.44790527 1.86313904 34.27081055 1.86105347 35.11865234 C1.5142454 38.86379866 1.5142454 38.86379866 3 42 C4.66429051 42.09823937 6.33281931 42.12973631 8 42.125 C8.9075 42.12757812 9.815 42.13015625 10.75 42.1328125 C12.96966611 42.25173779 12.96966611 42.25173779 14 41 C14.10103255 38.20006403 14.13970088 35.42531356 14.1328125 32.625 C14.13376923 31.78533691 14.13472595 30.94567383 14.13571167 30.08056641 C14.13639348 28.30175705 14.13453917 26.52294523 14.13037109 24.74414062 C14.12502283 22.01166224 14.13031605 19.27934824 14.13671875 16.546875 C14.13605797 14.8229163 14.13477681 13.09895771 14.1328125 11.375 C14.13483673 10.55209473 14.13686096 9.72918945 14.13894653 8.88134766 C14.4857546 5.13620134 14.4857546 5.13620134 13 2 C11.33570949 1.90176063 9.66718069 1.87026369 8 1.875 C7.0925 1.87242188 6.185 1.86984375 5.25 1.8671875 C3.03033389 1.74826221 3.03033389 1.74826221 2 3 Z M30 3 C29.89896745 5.79993597 29.86029912 8.57468644 29.8671875 11.375 C29.86623077 12.21466309 29.86527405 13.05432617 29.86428833 13.91943359 C29.86360652 15.69824295 29.86546083 17.47705477 29.86962891 19.25585938 C29.87497717 21.98833776 29.86968395 24.72065176 29.86328125 27.453125 C29.86394203 29.1770837 29.86522319 30.90104229 29.8671875 32.625 C29.86516327 33.44790527 29.86313904 34.27081055 29.86105347 35.11865234 C29.5142454 38.86379866 29.5142454 38.86379866 31 42 C32.66429051 42.09823937 34.33281931 42.12973631 36 42.125 C36.9075 42.12757812 37.815 42.13015625 38.75 42.1328125 C40.96966611 42.25173779 40.96966611 42.25173779 42 41 C42.10103255 38.20006403 42.13970088 35.42531356 42.1328125 32.625 C42.13376923 31.78533691 42.13472595 30.94567383 42.13571167 30.08056641 C42.13639348 28.30175705 42.13453917 26.52294523 42.13037109 24.74414062 C42.12502283 22.01166224 42.13031605 19.27934824 42.13671875 16.546875 C42.13605797 14.8229163 42.13477681 13.09895771 42.1328125 11.375 C42.13483673 10.55209473 42.13686096 9.72918945 42.13894653 8.88134766 C42.4857546 5.13620134 42.4857546 5.13620134 41 2 C39.33570949 1.90176063 37.66718069 1.87026369 36 1.875 C35.0925 1.87242188 34.185 1.86984375 33.25 1.8671875 C31.03033389 1.74826221 31.03033389 1.74826221 30 3 Z M16 11 C16 21.23 16 31.46 16 42 C19.96 42 23.92 42 28 42 C28 31.77 28 21.54 28 11 C24.04 11 20.08 11 16 11 Z " fill="#7A9494" transform="translate(3,3)"/>
<path d="M0 0 C2.64 0 5.28 0 8 0 C8 0.66 8 1.32 8 2 C5.36 2 2.72 2 0 2 C0 1.34 0 0.68 0 0 Z " fill="#7A9292" transform="translate(21,39)"/>
<path d="M0 0 C2.64 0 5.28 0 8 0 C8 0.66 8 1.32 8 2 C5.36 2 2.72 2 0 2 C0 1.34 0 0.68 0 0 Z " fill="#7B9292" transform="translate(35,38)"/>
<path d="M0 0 C2.64 0 5.28 0 8 0 C8 0.66 8 1.32 8 2 C5.36 2 2.72 2 0 2 C0 1.34 0 0.68 0 0 Z " fill="#7B9292" transform="translate(7,38)"/>
<path d="M0 0 C2.64 0 5.28 0 8 0 C8 0.66 8 1.32 8 2 C5.36 2 2.72 2 0 2 C0 1.34 0 0.68 0 0 Z " fill="#7B9292" transform="translate(35,34)"/>
<path d="M0 0 C2.64 0 5.28 0 8 0 C8 0.66 8 1.32 8 2 C5.36 2 2.72 2 0 2 C0 1.34 0 0.68 0 0 Z " fill="#7B9292" transform="translate(7,34)"/>
<path d="M0 0 C2.64 0 5.28 0 8 0 C8 0.66 8 1.32 8 2 C5.36 2 2.72 2 0 2 C0 1.34 0 0.68 0 0 Z " fill="#7B9292" transform="translate(21,20)"/>
<path d="M0 0 C2.64 0 5.28 0 8 0 C8 0.66 8 1.32 8 2 C5.36 2 2.72 2 0 2 C0 1.34 0 0.68 0 0 Z " fill="#7B9292" transform="translate(35,11)"/>
<path d="M0 0 C2.64 0 5.28 0 8 0 C8 0.66 8 1.32 8 2 C5.36 2 2.72 2 0 2 C0 1.34 0 0.68 0 0 Z " fill="#7B9292" transform="translate(7,11)"/>
</svg>
