<?xml version="1.0" encoding="UTF-8"?>
<svg version="1.1" xmlns="http://www.w3.org/2000/svg" width="48" height="48">
<path d="M0 0 C5.19968212 3.03243406 9.41786887 7.15080874 11.08203125 13.0703125 C11.375 15 11.375 15 11.5 18 C9.6875 17.875 9.6875 17.875 7.5 17 C5.76918256 14.05119992 4.58011848 11.24035543 3.5 8 C1.75132517 6.91568906 1.75132517 6.91568906 -0.5 6 C-1.325 5.46375 -2.15 4.9275 -3 4.375 C-9.15034744 1.95879208 -15.7045265 2.03429097 -21.9375 4.1875 C-27.37590954 8.03417992 -30.43429272 12.20921958 -33.5 18 C-34.49 18 -35.48 18 -36.5 18 C-36.23181666 11.56359986 -34.11635079 7.5125065 -29.5 3 C-20.96434561 -3.48396498 -9.75617287 -4.31975124 0 0 Z " fill="#000000" transform="translate(36.5,11)"/>
<path d="M0 0 C2.57866282 0.6298701 3.70080431 1.22910257 5.5078125 3.14453125 C7.66952993 7.10767986 8.02943979 9.1364686 7.3828125 13.58203125 C6.11282931 16.43949342 5.0990122 18.06340388 2.5703125 19.89453125 C-1.47780371 21.16679634 -4.49705859 21.09118076 -8.3671875 19.33203125 C-11.94749054 16.54735111 -12.47468794 14.6813136 -13.0546875 10.20703125 C-12.6168329 6.57909311 -11.91476948 4.38746814 -9.375 1.6953125 C-6.34537534 -0.22344978 -3.51023028 -0.22528344 0 0 Z M-7.5546875 5.64453125 C-9.28384428 8.79769949 -8.4762574 11.2071138 -7.6171875 14.58203125 C-4.79150204 16.9024122 -4.79150204 16.9024122 -1.5546875 16.39453125 C1.68022203 15.84448627 1.68022203 15.84448627 3.3828125 12.58203125 C3.73666199 9.75123533 3.7749016 8.21373036 2.2578125 5.76953125 C-1.00365189 3.70393713 -4.19779207 3.80365311 -7.5546875 5.64453125 Z " fill="#000000" transform="translate(26.6171875,16.41796875)"/>
</svg>
