<?xml version="1.0" encoding="UTF-8"?>
<svg version="1.1" xmlns="http://www.w3.org/2000/svg" width="64" height="64">
<path d="M0 0 C2.64 0 5.28 0 8 0 C8 1.98 8 3.96 8 6 C6.02 6 4.04 6 2 6 C2.94989124 9.7132112 3.53483814 11.6192269 6.55151367 14.08862305 C10.06464976 18.26592366 9.63753302 21.60397092 9.48828125 26.89453125 C9.48120651 27.84188644 9.47413177 28.78924164 9.46684265 29.76530457 C9.43892334 32.78185021 9.37618915 35.7965184 9.3125 38.8125 C9.28741396 40.86130126 9.26460133 42.9101317 9.24414062 44.95898438 C9.18910459 49.97337621 9.10284856 54.98637014 9 60 C8.34 60 7.68 60 7 60 C6.97421875 59.10796875 6.9484375 58.2159375 6.921875 57.296875 C6.86515625 56.12640625 6.8084375 54.9559375 6.75 53.75 C6.70359375 52.58984375 6.6571875 51.4296875 6.609375 50.234375 C5.91208725 46.53338618 4.88214816 45.32877571 2 43 C-0.46800047 44.15173355 -2.04783565 45.04783565 -4 47 C-4.46486718 50.12196336 -4.46486718 50.12196336 -4.625 53.625 C-4.69976563 54.81351563 -4.77453125 56.00203125 -4.8515625 57.2265625 C-4.90054687 58.14179687 -4.94953125 59.05703125 -5 60 C-5.66 60 -6.32 60 -7 60 C-7.14865105 53.98611203 -7.25736011 47.97330002 -7.32958984 41.95800781 C-7.35970785 39.9132219 -7.40061191 37.8685646 -7.45263672 35.82421875 C-7.52567223 32.87988528 -7.55950584 29.93726352 -7.5859375 26.9921875 C-7.63238907 25.6277803 -7.63238907 25.6277803 -7.67977905 24.23580933 C-7.68309667 17.93683465 -7.68309667 17.93683465 -5.65261841 15.15213013 C-4.16051396 13.70492356 -2.58357663 12.34650197 -1 11 C-0.08308839 8.05995453 -0.08308839 8.05995453 -0.125 5.125 C-0.06699219 3.67480469 -0.06699219 3.67480469 -0.0078125 2.1953125 C-0.00394531 1.10863281 -0.00394531 1.10863281 0 0 Z M-4 19 C-4.33333333 22 -4.33333333 22 -4 25 C-2.11499729 27.31563087 -2.11499729 27.31563087 1 27.25 C4.11499729 27.31563087 4.11499729 27.31563087 6 25 C6.33333333 22 6.33333333 22 6 19 C4.11499729 16.68436913 4.11499729 16.68436913 1 16.75 C-2.11499729 16.68436913 -2.11499729 16.68436913 -4 19 Z M-3 32 C-3 33.98 -3 35.96 -3 38 C-2.01 38 -1.02 38 0 38 C0 36.02 0 34.04 0 32 C-0.99 32 -1.98 32 -3 32 Z M2 32 C2 33.98 2 35.96 2 38 C2.99 38 3.98 38 5 38 C5 36.02 5 34.04 5 32 C4.01 32 3.02 32 2 32 Z " fill="#ABABAB" transform="translate(31,2)"/>
<path d="M0 0 C4.62 0 9.24 0 14 0 C14 6.27 14 12.54 14 19 C9.38 19 4.76 19 0 19 C0 12.73 0 6.46 0 0 Z M4 7 C4 8.32 4 9.64 4 11 C4.66 11 5.32 11 6 11 C6 9.68 6 8.36 6 7 C5.34 7 4.68 7 4 7 Z M8 7 C8 8.32 8 9.64 8 11 C8.66 11 9.32 11 10 11 C10 9.68 10 8.36 10 7 C9.34 7 8.68 7 8 7 Z " fill="#ACACAC" transform="translate(42,43)"/>
<path d="M0 0 C4.62 0 9.24 0 14 0 C14 6.27 14 12.54 14 19 C9.38 19 4.76 19 0 19 C0 12.73 0 6.46 0 0 Z M4 7 C4 8.32 4 9.64 4 11 C4.66 11 5.32 11 6 11 C6 9.68 6 8.36 6 7 C5.34 7 4.68 7 4 7 Z M8 7 C8 8.32 8 9.64 8 11 C8.66 11 9.32 11 10 11 C10 9.68 10 8.36 10 7 C9.34 7 8.68 7 8 7 Z " fill="#ACACAC" transform="translate(8,43)"/>
<path d="M0 0 C5.94 0 11.88 0 18 0 C18 0.66 18 1.32 18 2 C16.68 2 15.36 2 14 2 C14 6.62 14 11.24 14 16 C9.38 16 4.76 16 0 16 C0 10.72 0 5.44 0 0 Z M4 8 C4 9.32 4 10.64 4 12 C4.66 12 5.32 12 6 12 C6 10.68 6 9.36 6 8 C5.34 8 4.68 8 4 8 Z M8 8 C8 9.32 8 10.64 8 12 C8.66 12 9.32 12 10 12 C10 10.68 10 9.36 10 8 C9.34 8 8.68 8 8 8 Z " fill="#ACACAC" transform="translate(42,21)"/>
<path d="M0 0 C5.94 0 11.88 0 18 0 C18 5.28 18 10.56 18 16 C13.38 16 8.76 16 4 16 C4 11.38 4 6.76 4 2 C2.68 2 1.36 2 0 2 C0 1.34 0 0.68 0 0 Z M8 8 C8 9.32 8 10.64 8 12 C8.66 12 9.32 12 10 12 C10 10.68 10 9.36 10 8 C9.34 8 8.68 8 8 8 Z M12 8 C12 9.32 12 10.64 12 12 C12.66 12 13.32 12 14 12 C14 10.68 14 9.36 14 8 C13.34 8 12.68 8 12 8 Z " fill="#ACACAC" transform="translate(4,21)"/>
<path d="M0 0 C4.55555556 0.55555556 4.55555556 0.55555556 6 2 C6.07271741 4.35313555 6.08370868 6.70833668 6.0625 9.0625 C6.05347656 10.35285156 6.04445313 11.64320312 6.03515625 12.97265625 C6.02355469 13.97167969 6.01195312 14.97070312 6 16 C3.36 16 0.72 16 -2 16 C-2.05384521 13.70858714 -2.09272087 11.41681812 -2.125 9.125 C-2.14820312 7.84882812 -2.17140625 6.57265625 -2.1953125 5.2578125 C-2 2 -2 2 0 0 Z " fill="#ABABAB" transform="translate(30,46)"/>
<path d="M0 0 C13.5470852 -0.92017937 13.5470852 -0.92017937 17.109375 1.3359375 C18.4375 3 18.4375 3 20 6 C6.4529148 6.92017937 6.4529148 6.92017937 2.890625 4.6640625 C1.5625 3 1.5625 3 0 0 Z " fill="#ABABAB" transform="translate(35,13)"/>
<path d="M0 0 C-1.55540367 2.98637504 -2.20884196 4.23226658 -5 6 C-10.04811411 6.54777408 -14.94235137 6.3435384 -20 6 C-15.7079654 -2.24070644 -8.15548532 -0.55395749 0 0 Z " fill="#ABABAB" transform="translate(29,13)"/>
<path d="M0 0 C3 0.125 3 0.125 4 1.125 C4.125 4.125 4.125 4.125 4 7.125 C3 8.125 3 8.125 0 8.25 C-3 8.125 -3 8.125 -4 7.125 C-4.125 4.125 -4.125 4.125 -4 1.125 C-3 0.125 -3 0.125 0 0 Z M-1 1.125 C-0.67 2.445 -0.34 3.765 0 5.125 C0.99 5.125 1.98 5.125 3 5.125 C3 4.465 3 3.805 3 3.125 C2.34 3.125 1.68 3.125 1 3.125 C1 2.465 1 1.805 1 1.125 C0.34 1.125 -0.32 1.125 -1 1.125 Z " fill="#ABABAB" transform="translate(32,19.875)"/>
<path d="M0 0 C5.28 0 10.56 0 16 0 C16 0.66 16 1.32 16 2 C10.72 2 5.44 2 0 2 C0 1.34 0 0.68 0 0 Z " fill="#ACACAC" transform="translate(42,39)"/>
<path d="M0 0 C5.28 0 10.56 0 16 0 C16 0.66 16 1.32 16 2 C10.72 2 5.44 2 0 2 C0 1.34 0 0.68 0 0 Z " fill="#ACACAC" transform="translate(6,39)"/>
</svg>
