<?xml version="1.0" encoding="UTF-8"?>
<svg version="1.1" xmlns="http://www.w3.org/2000/svg" width="50" height="50">
<path d="M0 0 C0.89025879 0.46083984 1.78051758 0.92167969 2.69775391 1.39648438 C3.67099609 1.89277344 4.64423828 2.3890625 5.64697266 2.90039062 C6.64599609 3.42503906 7.64501953 3.9496875 8.67431641 4.49023438 C9.69654297 5.01488281 10.71876953 5.53953125 11.77197266 6.08007812 C14.28686104 7.37277776 16.79544718 8.67635425 19.29931641 9.99023438 C19.29931641 11.31023438 19.29931641 12.63023438 19.29931641 13.99023438 C18.01018153 14.6617837 16.71791437 15.32732296 15.42431641 15.99023438 C14.70501953 16.36148437 13.98572266 16.73273437 13.24462891 17.11523438 C11.29931641 17.99023438 11.29931641 17.99023438 9.29931641 17.99023438 C9.29931641 19.64023437 9.29931641 21.29023438 9.29931641 22.99023438 C6.22046902 24.01651684 4.08668011 24.11929952 0.86181641 24.12304688 C-0.72759766 24.12498047 -0.72759766 24.12498047 -2.34912109 24.12695312 C-3.45513672 24.12308594 -4.56115234 24.11921875 -5.70068359 24.11523438 C-7.35970703 24.12103516 -7.35970703 24.12103516 -9.05224609 24.12695312 C-10.11185547 24.12566406 -11.17146484 24.124375 -12.26318359 24.12304688 C-13.71917969 24.12135498 -13.71917969 24.12135498 -15.20458984 24.11962891 C-17.70068359 23.99023438 -17.70068359 23.99023438 -20.70068359 22.99023438 C-20.70068359 21.34023438 -20.70068359 19.69023437 -20.70068359 17.99023438 C-22.02068359 17.66023438 -23.34068359 17.33023437 -24.70068359 16.99023438 C-24.70068359 20.95023438 -24.70068359 24.91023438 -24.70068359 28.99023438 C-24.04068359 28.99023438 -23.38068359 28.99023438 -22.70068359 28.99023438 C-22.45068359 34.61523437 -22.45068359 34.61523437 -24.70068359 37.99023438 C-25.69068359 37.66023438 -26.68068359 37.33023438 -27.70068359 36.99023438 C-29.05508027 34.28144102 -28.7656981 31.9809017 -28.70068359 28.99023438 C-28.04068359 28.99023438 -27.38068359 28.99023438 -26.70068359 28.99023438 C-26.70068359 24.37023437 -26.70068359 19.75023437 -26.70068359 14.99023438 C-28.02068359 14.66023438 -29.34068359 14.33023437 -30.70068359 13.99023438 C-30.70068359 12.67023437 -30.70068359 11.35023437 -30.70068359 9.99023438 C-27.1690651 8.13705319 -23.62393347 6.31134118 -20.07568359 4.49023438 C-19.07666016 3.96558594 -18.07763672 3.4409375 -17.04833984 2.90039062 C-16.07509766 2.40410156 -15.10185547 1.9078125 -14.09912109 1.39648438 C-13.2088623 0.93564453 -12.31860352 0.47480469 -11.40136719 0 C-7.25573398 -1.5500216 -4.14563321 -1.5500216 0 0 Z M-10.83349609 3.95898438 C-11.63916016 4.36503906 -12.44482422 4.77109375 -13.27490234 5.18945312 C-14.11666016 5.61871094 -14.95841797 6.04796875 -15.82568359 6.49023438 C-16.67517578 6.91949219 -17.52466797 7.34875 -18.39990234 7.79101562 C-20.50199402 8.85387097 -22.60213263 9.92040966 -24.70068359 10.99023438 C-24.70068359 11.65023438 -24.70068359 12.31023438 -24.70068359 12.99023438 C-23.38068359 13.32023437 -22.06068359 13.65023438 -20.70068359 13.99023438 C-20.70068359 13.33023437 -20.70068359 12.67023437 -20.70068359 11.99023438 C-10.80068359 11.99023438 -0.90068359 11.99023438 9.29931641 11.99023438 C9.29931641 12.65023438 9.29931641 13.31023438 9.29931641 13.99023438 C10.61931641 13.66023438 11.93931641 13.33023437 13.29931641 12.99023438 C13.29931641 12.33023437 13.29931641 11.67023437 13.29931641 10.99023438 C10.34423735 9.4837584 7.384743 7.98617073 4.42431641 6.49023438 C3.58255859 6.06097656 2.74080078 5.63171875 1.87353516 5.18945312 C0.66503906 4.58037109 0.66503906 4.58037109 -0.56787109 3.95898438 C-1.31149902 3.58193359 -2.05512695 3.20488281 -2.82128906 2.81640625 C-6.13680285 1.35892396 -7.74746948 2.39423849 -10.83349609 3.95898438 Z M-17.70068359 13.99023438 C-18.03068359 15.64023437 -18.36068359 17.29023438 -18.70068359 18.99023438 C-10.12068359 18.99023438 -1.54068359 18.99023438 7.29931641 18.99023438 C6.96931641 17.34023438 6.63931641 15.69023437 6.29931641 13.99023438 C-1.86685553 13.14635333 -9.55065436 12.92860732 -17.70068359 13.99023438 Z M-6.70068359 19.99023438 C-6.70068359 20.65023438 -6.70068359 21.31023438 -6.70068359 21.99023438 C-6.04068359 21.99023438 -5.38068359 21.99023438 -4.70068359 21.99023438 C-4.70068359 21.33023437 -4.70068359 20.67023437 -4.70068359 19.99023438 C-5.36068359 19.99023438 -6.02068359 19.99023438 -6.70068359 19.99023438 Z " fill="#7B9090" transform="translate(30.70068359375,8.009765625)"/>
</svg>
